<svg xmlns="http://www.w3.org/2000/svg" viewBox="0 0 1200 760"><rect width="1200" height="760" fill="#24221e"/><path d="M90 610h1020" stroke="#c89b4b" stroke-width="3"/><ellipse cx="600" cy="625" rx="470" ry="35" fill="#080909" opacity=".8"/><g transform="translate(105 145)"><path d="M90 365h120l80-150h410l130 150h125c45 0 80 35 80 80v70H90v-70c0-45 35-80 80-80Z" fill="#b86d3d" stroke="#eee6d6" stroke-width="8"/><path d="M325 230 365 145h265l85 85Z" fill="#242c2c" stroke="#eee6d6" stroke-width="8"/><path d="M375 155h105v65H340Zm125 0h120l65 65H500Z" fill="#c4d0cd" opacity=".75"/><circle cx="290" cy="515" r="70" fill="#111" stroke="#c89b4b" stroke-width="14"/><circle cx="800" cy="515" r="70" fill="#111" stroke="#c89b4b" stroke-width="14"/><circle cx="290" cy="515" r="27" fill="#d4d6c7"/><circle cx="800" cy="515" r="27" fill="#d4d6c7"/><rect x="910" y="385" width="50" height="35" rx="8" fill="#e8cc70"/><text x="480" y="350" fill="#f4efe3" font-family="Arial" font-weight="700" font-size="38" letter-spacing="8">SAI SANDHYA</text></g><text x="88" y="92" fill="#c89b4b" font-family="Arial" font-size="28" letter-spacing="7">TATA NEXON · TRAINING CAR</text></svg>